<?xml version="1.0" standalone="no"?>
<!DOCTYPE svg PUBLIC "-//W3C//DTD SVG 20010904//EN"
 "http://www.w3.org/TR/2001/REC-SVG-20010904/DTD/svg10.dtd">
<svg version="1.0" xmlns="http://www.w3.org/2000/svg"
 width="1280.000000pt" height="897.000000pt" viewBox="0 0 1280.000000 897.000000"
 preserveAspectRatio="xMidYMid meet">
<metadata>
Created by potrace 1.15, written by Peter Selinger 2001-2017
</metadata>
<g transform="translate(0.000000,897.000000) scale(0.100000,-0.100000)"
fill="#000000" stroke="none">
<path d="M8415 8856 l-610 -112 -315 -210 -315 -211 -315 -323 c-241 -247
-342 -343 -430 -410 -171 -129 -352 -250 -469 -316 -164 -91 -525 -357 -542
-399 -4 -11 -17 -67 -29 -124 -11 -58 -22 -106 -24 -109 -2 -2 -40 12 -85 32
-186 82 -764 281 -891 308 -47 9 -97 8 -274 -8 l-217 -20 -247 27 c-136 14
-451 48 -700 75 l-452 48 -110 -109 -110 -110 -197 -385 c-193 -378 -200 -390
-404 -686 l-208 -302 -37 -173 -37 -174 -185 -140 -186 -140 -120 -361 -121
-362 -165 -137 c-91 -75 -166 -138 -167 -139 -2 -1 -16 -85 -33 -187 l-30
-184 -195 -410 -196 -409 36 -341 c19 -187 38 -350 41 -363 3 -14 103 -101
291 -252 286 -228 297 -235 441 -291 22 -9 21 -11 -36 -77 -68 -80 -110 -139
-142 -201 -17 -35 -22 -60 -21 -123 2 -190 67 -341 158 -367 17 -5 132 -5 264
0 129 4 255 8 281 9 l46 0 72 -90 c76 -95 83 -99 234 -136 20 -5 32 -17 43
-43 63 -160 131 -257 186 -266 700 -112 904 -142 1050 -151 l104 -7 81 37 c45
20 119 53 165 73 114 51 176 53 562 13 171 -18 355 -33 410 -34 99 -1 101 -1
187 42 97 49 205 140 232 197 14 28 19 82 26 251 4 119 12 219 16 223 15 13
586 135 687 147 65 8 65 8 43 -72 l-13 -50 72 -170 72 -169 319 -27 c175 -15
393 -39 484 -53 153 -24 219 -27 890 -46 715 -20 1097 -21 1762 -2 l236 6 82
99 c44 54 83 105 86 112 4 11 -13 73 -72 269 -5 16 16 17 353 17 l358 1 83
145 83 145 -12 125 c-6 68 -10 126 -8 128 2 2 105 40 229 84 210 75 312 117
550 230 52 24 119 55 148 68 l53 23 -6 58 -6 58 118 107 c65 58 209 173 321
254 l204 148 197 275 c108 152 200 281 204 287 4 7 -63 54 -178 124 -102 62
-185 115 -185 119 0 17 199 177 263 213 40 21 83 49 96 61 57 53 122 171 332
597 l224 454 -1 66 c-1 36 -18 155 -38 265 -21 110 -42 256 -47 325 -12 147
-48 325 -94 467 -47 146 -142 281 -500 712 l-160 192 -495 942 -495 942 -384
182 -384 183 -302 0 -302 0 -267 65 c-146 36 -274 65 -284 64 -9 0 -291 -51
-627 -113z"/>
</g>
</svg>
